{"accessors":[{"name":"mountaingong-Mesh_positions","componentType":5126,"count":2936,"min":[-102.78135681152344,-199.15467834472656,-12.10456657409668],"max":[149.8332061767578,256.81939697265625,65.0186996459961],"type":"VEC3","bufferView":0,"byteOffset":0},{"name":"mountaingong-Mesh_normals","componentType":5126,"count":2936,"min":[-0.9999148845672607,-0.9989305138587952,-1],"max":[0.9995834827423096,0.9991976022720337,1],"type":"VEC3","bufferView":0,"byteOffset":35232},{"name":"mountaingong-Mesh_texcoords","componentType":5126,"count":2936,"min":[0.0084087448194623,0.00838780403137207],"max":[0.9915912747383118,0.9916121959686279],"type":"VEC2","bufferView":1,"byteOffset":0},{"name":"mountaingong-Mesh_0_indices","componentType":5123,"count":9492,"min":[0],"max":[2935],"type":"SCALAR","bufferView":2,"byteOffset":0}],"asset":{"generator":"obj2gltf","version":"2.0"},"buffers":[{"name":"mountaingong","byteLength":373244,"uri":"data:application/octet-stream;base64,"}],"bufferViews":[{"name":"bufferView_0","buffer":0,"byteLength":70464,"byteOffset":0,"byteStride":12,"target":34962},{"name":"bufferView_1","buffer":0,"byteLength":23488,"byteOffset":70464,"byteStride":8,"target":34962},{"name":"bufferView_2","buffer":0,"byteLength":18984,"byteOffset":93952,"target":34963},{"buffer":0,"byteOffset":112936,"byteLength":260305}],"images":[{"name":"mountaingong","mimeType":"image/jpeg","bufferView":3}],"materials":[{"name":"Mat.3","pbrMetallicRoughness":{"baseColorTexture":{"index":0},"baseColorFactor":[1,1,1,1],"metallicFactor":0,"roughnessFactor":0.95},"emissiveFactor":[0,0,0],"alphaMode":"OPAQUE","doubleSided":false}],"meshes":[{"name":"mountaingong-Mesh","primitives":[{"attributes":{"POSITION":0,"NORMAL":1,"TEXCOORD_0":2},"indices":3,"material":0,"mode":4}]}],"nodes":[{"name":"mountaingong","mesh":0}],"samplers":[{"magFilter":9729,"minFilter":9986,"wrapS":10497,"wrapT":10497}],"scene":0,"scenes":[{"nodes":[0]}],"textures":[{"name":"mountaingong","sampler":0,"source":0}]}