{"accessors":[{"name":"mountainv4-Mesh_positions","componentType":5126,"count":3640,"min":[-178.01934814453125,-124.10635375976562,-147.7098388671875],"max":[172.6356964111328,196.25466918945312,152.76869201660156],"type":"VEC3","bufferView":0,"byteOffset":0},{"name":"mountainv4-Mesh_normals","componentType":5126,"count":3640,"min":[-0.9700716733932495,-0.4214487671852112,-0.993827223777771],"max":[0.993827223777771,1,0.979727029800415],"type":"VEC3","bufferView":0,"byteOffset":43680},{"name":"mountainv4-Mesh_texcoords","componentType":5126,"count":3640,"min":[0.006903706584125757,0.006911754608154297],"max":[0.9930962920188904,0.9930882453918457],"type":"VEC2","bufferView":1,"byteOffset":0},{"name":"mountainv4-Mesh_0_indices","componentType":5123,"count":7770,"min":[0],"max":[3639],"type":"SCALAR","bufferView":2,"byteOffset":0}],"asset":{"generator":"obj2gltf","version":"2.0"},"buffers":[{"name":"mountainv4","byteLength":450124,"uri":"data:application/octet-stream;base64,"}],"bufferViews":[{"name":"bufferView_0","buffer":0,"byteLength":87360,"byteOffset":0,"byteStride":12,"target":34962},{"name":"bufferView_1","buffer":0,"byteLength":29120,"byteOffset":87360,"byteStride":8,"target":34962},{"name":"bufferView_2","buffer":0,"byteLength":15540,"byteOffset":116480,"target":34963},{"buffer":0,"byteOffset":132020,"byteLength":318101}],"images":[{"name":"mountainv4","mimeType":"image/jpeg","bufferView":3}],"materials":[{"name":"Mat.3","pbrMetallicRoughness":{"baseColorTexture":{"index":0},"baseColorFactor":[1,1,1,1],"metallicFactor":0,"roughnessFactor":0.95},"emissiveFactor":[0,0,0],"alphaMode":"OPAQUE","doubleSided":false}],"meshes":[{"name":"mountainv4-Mesh","primitives":[{"attributes":{"POSITION":0,"NORMAL":1,"TEXCOORD_0":2},"indices":3,"material":0,"mode":4}]}],"nodes":[{"name":"mountainv4","mesh":0}],"samplers":[{"magFilter":9729,"minFilter":9986,"wrapS":10497,"wrapT":10497}],"scene":0,"scenes":[{"nodes":[0]}],"textures":[{"name":"mountainv4","sampler":0,"source":0}]}