{"accessors":[{"name":"Landscape-Mesh_positions","componentType":5126,"count":283,"min":[-125.69515228271484,-102.58648681640625,-148.94705200195312],"max":[119.29551696777344,171.75270080566406,134.03427124023438],"type":"VEC3","bufferView":0,"byteOffset":0},{"name":"Landscape-Mesh_normals","componentType":5126,"count":283,"min":[-0.9666414856910706,0.050751786679029465,-0.9504085779190063],"max":[0.960128128528595,0.9945282340049744,0.9900119304656982],"type":"VEC3","bufferView":0,"byteOffset":3396},{"name":"Landscape-Mesh_texcoords","componentType":5126,"count":283,"min":[0.008661122061312199,0.008683562278747559],"max":[0.991338849067688,0.9913164377212524],"type":"VEC2","bufferView":1,"byteOffset":0},{"name":"Landscape-Mesh_0_indices","componentType":5123,"count":978,"min":[0],"max":[282],"type":"SCALAR","bufferView":2,"byteOffset":0}],"asset":{"generator":"obj2gltf","version":"2.0"},"buffers":[{"name":"mountainv3","byteLength":173796,"uri":"data:application/octet-stream;base64,"}],"bufferViews":[{"name":"bufferView_0","buffer":0,"byteLength":6792,"byteOffset":0,"byteStride":12,"target":34962},{"name":"bufferView_1","buffer":0,"byteLength":2264,"byteOffset":6792,"byteStride":8,"target":34962},{"name":"bufferView_2","buffer":0,"byteLength":1956,"byteOffset":9056,"target":34963},{"buffer":0,"byteOffset":11012,"byteLength":162783}],"images":[{"name":"mountainv3","mimeType":"image/jpeg","bufferView":3}],"materials":[{"name":"Mat.2","pbrMetallicRoughness":{"baseColorTexture":{"index":0},"baseColorFactor":[1,1,1,1],"metallicFactor":0,"roughnessFactor":0.95},"emissiveFactor":[0,0,0],"alphaMode":"OPAQUE","doubleSided":false}],"meshes":[{"name":"Landscape-Mesh","primitives":[{"attributes":{"POSITION":0,"NORMAL":1,"TEXCOORD_0":2},"indices":3,"material":0,"mode":4}]}],"nodes":[{"name":"Landscape","mesh":0}],"samplers":[{"magFilter":9729,"minFilter":9986,"wrapS":10497,"wrapT":10497}],"scene":0,"scenes":[{"nodes":[0]}],"textures":[{"name":"mountainv3","sampler":0,"source":0}]}