{"accessors":[{"name":"Landscape-Mesh_positions","componentType":5126,"count":446,"min":[-158.95458984375,-112.4100112915039,-158.2874755859375],"max":[150.31646728515625,195.6827850341797,159.1595916748047],"type":"VEC3","bufferView":0,"byteOffset":0},{"name":"Landscape-Mesh_normals","componentType":5126,"count":446,"min":[-0.9370570778846741,0.23684607446193695,-0.940863847732544],"max":[0.9386643171310425,0.9842612147331238,0.94248366355896],"type":"VEC3","bufferView":0,"byteOffset":5352},{"name":"Landscape-Mesh_texcoords","componentType":5126,"count":446,"min":[0.008717186748981476,0.008355796337127686],"max":[0.9912828207015991,0.9916441440582275],"type":"VEC2","bufferView":1,"byteOffset":0},{"name":"Landscape-Mesh_0_indices","componentType":5123,"count":1527,"min":[0],"max":[445],"type":"SCALAR","bufferView":2,"byteOffset":0}],"asset":{"generator":"obj2gltf","version":"2.0"},"buffers":[{"name":"mountainv2","byteLength":194864,"uri":"data:application/octet-stream;base64,"}],"bufferViews":[{"name":"bufferView_0","buffer":0,"byteLength":10704,"byteOffset":0,"byteStride":12,"target":34962},{"name":"bufferView_1","buffer":0,"byteLength":3568,"byteOffset":10704,"byteStride":8,"target":34962},{"name":"bufferView_2","buffer":0,"byteLength":3056,"byteOffset":14272,"target":34963},{"buffer":0,"byteOffset":17328,"byteLength":177536}],"images":[{"name":"mountainv2","mimeType":"image/jpeg","bufferView":3}],"materials":[{"name":"Mat.2","pbrMetallicRoughness":{"baseColorTexture":{"index":0},"baseColorFactor":[1,1,1,1],"metallicFactor":0,"roughnessFactor":0.95},"emissiveFactor":[0,0,0],"alphaMode":"OPAQUE","doubleSided":false}],"meshes":[{"name":"Landscape-Mesh","primitives":[{"attributes":{"POSITION":0,"NORMAL":1,"TEXCOORD_0":2},"indices":3,"material":0,"mode":4}]}],"nodes":[{"name":"Landscape","mesh":0}],"samplers":[{"magFilter":9729,"minFilter":9986,"wrapS":10497,"wrapT":10497}],"scene":0,"scenes":[{"nodes":[0]}],"textures":[{"name":"mountainv2","sampler":0,"source":0}]}