{"accessors":[{"name":"mountain-Mesh_positions","componentType":5126,"count":1754,"min":[-125.5828857421875,-110.3651351928711,-107.70477294921875],"max":[133.57179260253906,195.19577026367188,147.3141632080078],"type":"VEC3","bufferView":0,"byteOffset":0},{"name":"mountain-Mesh_normals","componentType":5126,"count":1754,"min":[-0.9997715353965759,-0.888455331325531,-0.9999489784240723],"max":[0.9989129900932312,0.9999499917030334,0.9944992661476135],"type":"VEC3","bufferView":0,"byteOffset":21048},{"name":"mountain-Mesh_texcoords","componentType":5126,"count":1754,"min":[0.008588239550590515,0.008513391017913818],"max":[0.9914117455482483,0.9914865493774414],"type":"VEC2","bufferView":1,"byteOffset":0},{"name":"mountain-Mesh_0_indices","componentType":5123,"count":5868,"min":[0],"max":[1753],"type":"SCALAR","bufferView":2,"byteOffset":0}],"asset":{"generator":"obj2gltf","version":"2.0"},"buffers":[{"name":"mountainv1","byteLength":349252,"uri":"data:application/octet-stream;base64,"}],"bufferViews":[{"name":"bufferView_0","buffer":0,"byteLength":42096,"byteOffset":0,"byteStride":12,"target":34962},{"name":"bufferView_1","buffer":0,"byteLength":14032,"byteOffset":42096,"byteStride":8,"target":34962},{"name":"bufferView_2","buffer":0,"byteLength":11736,"byteOffset":56128,"target":34963},{"buffer":0,"byteOffset":67864,"byteLength":281385}],"images":[{"name":"mountainv1","mimeType":"image/jpeg","bufferView":3}],"materials":[{"name":"Mat","pbrMetallicRoughness":{"baseColorTexture":{"index":0},"baseColorFactor":[1,1,1,1],"metallicFactor":0,"roughnessFactor":1},"emissiveFactor":[0,0,0],"alphaMode":"OPAQUE","doubleSided":false}],"meshes":[{"name":"mountain-Mesh","primitives":[{"attributes":{"POSITION":0,"NORMAL":1,"TEXCOORD_0":2},"indices":3,"material":0,"mode":4}]}],"nodes":[{"name":"mountain","mesh":0}],"samplers":[{"magFilter":9729,"minFilter":9986,"wrapS":10497,"wrapT":10497}],"scene":0,"scenes":[{"nodes":[0]}],"textures":[{"name":"mountainv1","sampler":0,"source":0}]}